<svg width="256" height="256" viewBox="0 0 256 256" fill="none" xmlns="http://www.w3.org/2000/svg">
<g clip-path="url(#clip0_2023_3)">
<path d="M137.905 46.8842C136.313 70.0763 144.063 88.1961 162.582 102.262C170.637 108.38 177.565 116.567 183.369 124.95C195.093 141.884 193.042 160.561 179.042 175.639C165.341 190.394 147.963 199.358 129.617 206.733C125.596 208.35 121.486 209.743 118.066 211C117.207 202.26 117.165 193.688 115.382 185.495C112.251 171.113 102.393 160.991 92.2367 150.92C84.7145 143.461 77.4268 135.244 72.1716 126.131C63.0388 110.292 66.4269 92.2695 78.99 78.9242C94.5181 62.4293 114.02 52.5381 134.955 45.0388C135.695 44.7735 136.941 45.92 137.905 46.8842ZM103.554 125.084C98.4589 123.417 93.3637 121.75 87.1705 119.724C90.8006 128.386 95.2305 134.041 102.775 137.111C110.478 140.246 118.142 143.556 125.542 147.34C138.383 153.906 151.008 160.896 164.205 167.966C166.446 165.361 168.809 162.615 171.501 159.487C150.979 143.24 128.073 133.598 103.554 125.084ZM107.956 99.1629C102.735 97.2646 97.4823 95.4479 92.3014 93.4455C86.9858 91.391 85.7067 95.3628 84.2091 98.8028C82.431 102.887 85.7722 103.162 88.3416 104.237C110.633 113.557 132.938 122.849 155.122 132.423C161.505 135.177 167.505 138.818 174.306 142.379C173.526 133.58 169.62 128.074 162.606 124.773C144.681 116.338 126.732 107.951 107.956 99.1629ZM111.693 72.8246C108.728 75.2025 105.764 77.5805 101.751 80.7999C113.346 85.5085 123.447 89.6102 134.461 94.0827C131.053 84.3214 128.088 75.8284 124.87 66.6143C120.607 68.622 116.546 70.5345 111.693 72.8246ZM126.467 171.403C128.827 177 131.187 182.597 133.76 188.699C139.66 185.259 144.954 182.172 151.221 178.519C141.622 173.074 133.342 168.378 125.063 163.682C124.669 164.052 124.275 164.423 123.881 164.793C124.646 166.713 125.41 168.634 126.467 171.403Z" fill="white"/>
</g>
<defs>
<clipPath id="clip0_2023_3">
<rect width="256" height="256" fill="white"/>
</clipPath>
</defs>
</svg>
